<svg xmlns="http://www.w3.org/2000/svg" viewBox="0 0 720 720">
<defs><linearGradient id="bg" x1="0" y1="0" x2="1" y2="1"><stop offset="0" stop-color="#fffaf1"/><stop offset="1" stop-color="#eef7ff"/></linearGradient><linearGradient id="screen" x1="0" y1="0" x2="1" y2="1"><stop offset="0" stop-color="#eef6ff"/><stop offset="1" stop-color="#d7e8ff"/></linearGradient></defs>
<rect width="720" height="720" rx="38" fill="url(#bg)"/><circle cx="570" cy="130" r="105" fill="#dff0ff" opacity=".75"/><circle cx="135" cy="535" r="115" fill="#fff0cf" opacity=".8"/>
<path d="M85 600c65-50 105-47 153-15 40 26 72 22 111-11" fill="none" stroke="#b8d9c7" stroke-width="9" stroke-linecap="round"/>
<g opacity=".9"><path d="M93 616c-12-71-2-112 30-151 23 49 23 98 4 151z" fill="#76b58d"/><path d="M125 605c16-61 48-97 94-119-7 54-35 92-94 119z" fill="#9bcda9"/><path d="M596 616c-9-54 4-99 39-134 19 50 10 94-39 134z" fill="#7ab890"/><path d="M585 606c-31-44-31-83-6-119 32 35 34 76 6 119z" fill="#a7d2b0"/></g>
<g transform="translate(150 315)"><rect x="50" y="0" width="370" height="235" rx="18" fill="#e7edf4" stroke="#9db3c7" stroke-width="5"/><rect x="70" y="23" width="330" height="182" rx="10" fill="url(#screen)"/><circle cx="89" cy="42" r="5" fill="#d38a46"/><circle cx="106" cy="42" r="5" fill="#7aa5c8"/><circle cx="123" cy="42" r="5" fill="#82b78e"/><text x="112" y="102" font-family="Arial,sans-serif" font-size="54" font-weight="700" fill="#17518a">&lt;/&gt;</text><rect x="110" y="133" width="210" height="10" rx="5" fill="#a9c9e7"/><rect x="110" y="157" width="145" height="10" rx="5" fill="#c4d8ea"/><path d="M0 239h470l38 27H-38z" fill="#b5c5d3"/><path d="M175 239h120l12 21H163z" fill="#8fa5b7"/></g>
<g font-family="Arial,sans-serif" font-weight="700"><g transform="translate(105 205)"><rect width="90" height="78" rx="18" fill="#fff" stroke="#dce7ef" stroke-width="3"/><text x="22" y="52" font-size="38" fill="#e4b42e">JS</text></g><g transform="translate(500 230)"><circle cx="45" cy="45" r="45" fill="#fff" stroke="#dce7ef" stroke-width="3"/><text x="15" y="60" font-size="44" fill="#2386d7">R</text></g><g transform="translate(495 360)"><circle cx="45" cy="45" r="45" fill="#fff" stroke="#dce7ef" stroke-width="3"/><text x="16" y="60" font-size="44" fill="#df9a31">J</text></g><g transform="translate(82 330)"><circle cx="45" cy="45" r="45" fill="#fff" stroke="#dce7ef" stroke-width="3"/><text x="16" y="60" font-size="40" fill="#2470bb">Py</text></g></g>
<g transform="translate(135 590)"><rect x="0" y="0" width="450" height="55" rx="22" fill="#f5e4c9"/><rect x="45" y="15" width="270" height="12" rx="6" fill="#c28a4b" opacity=".7"/><rect x="45" y="35" width="190" height="9" rx="4" fill="#d7ad78"/></g>
</svg>